<svg viewBox="0 0 1680 900" width="1680" height="900" style="display:block" xmlns="http://www.w3.org/2000/svg"><defs></defs><rect x="0" y="0" width="1680" height="900" fill="#ffffff"></rect><path d="M286 118 V109 H1560 V118" fill="none" stroke="#c6ccd6" stroke-width="1.2"></path><text x="923" y="103" text-anchor="middle" style="font:600 13px &#39;Inter&#39;, sans-serif;fill:#3b414d;">Multilayer perceptron   ·   4096 → 1024 → 256 → 64 → 1   ·   ~4.5 M parameters   ·   no framework, no autograd</text><polygon points="200,244 207,239.38 207,343.38 200,348" fill="#d6d9df" stroke="#aeb4bf" stroke-width="1.1" stroke-linejoin="round"></polygon><polygon points="96,244 200,244 207,239.38 103,239.38" fill="#f4f5f7" stroke="#aeb4bf" stroke-width="1.1" stroke-linejoin="round"></polygon><rect x="96" y="244" width="104" height="104" fill="#e8eaee" stroke="#aeb4bf" stroke-width="1.1"></rect><clipPath id="m2img"><rect x="96" y="244" width="104" height="104"></rect></clipPath><g clip-path="url(#m2img)"><line x1="-8" y1="244" x2="96" y2="348" stroke="#9aa0ad" stroke-width="0.8" opacity="0.5"></line><line x1="0" y1="244" x2="104" y2="348" stroke="#9aa0ad" stroke-width="0.8" opacity="0.5"></line><line x1="8" y1="244" x2="112" y2="348" stroke="#9aa0ad" stroke-width="0.8" opacity="0.5"></line><line x1="16" y1="244" x2="120" y2="348" stroke="#9aa0ad" stroke-width="0.8" opacity="0.5"></line><line x1="24" y1="244" x2="128" y2="348" stroke="#9aa0ad" stroke-width="0.8" opacity="0.5"></line><line x1="32" y1="244" x2="136" y2="348" stroke="#9aa0ad" stroke-width="0.8" opacity="0.5"></line><line x1="40" y1="244" x2="144" y2="348" stroke="#9aa0ad" stroke-width="0.8" opacity="0.5"></line><line x1="48" y1="244" x2="152" y2="348" stroke="#9aa0ad" stroke-width="0.8" opacity="0.5"></line><line x1="56" y1="244" x2="160" y2="348" stroke="#9aa0ad" stroke-width="0.8" opacity="0.5"></line><line x1="64" y1="244" x2="168" y2="348" stroke="#9aa0ad" stroke-width="0.8" opacity="0.5"></line><line x1="72" y1="244" x2="176" y2="348" stroke="#9aa0ad" stroke-width="0.8" opacity="0.5"></line><line x1="80" y1="244" x2="184" y2="348" stroke="#9aa0ad" stroke-width="0.8" opacity="0.5"></line><line x1="88" y1="244" x2="192" y2="348" stroke="#9aa0ad" stroke-width="0.8" opacity="0.5"></line><line x1="96" y1="244" x2="200" y2="348" stroke="#9aa0ad" stroke-width="0.8" opacity="0.5"></line><line x1="104" y1="244" x2="208" y2="348" stroke="#9aa0ad" stroke-width="0.8" opacity="0.5"></line><line x1="112" y1="244" x2="216" y2="348" stroke="#9aa0ad" stroke-width="0.8" opacity="0.5"></line><line x1="120" y1="244" x2="224" y2="348" stroke="#9aa0ad" stroke-width="0.8" opacity="0.5"></line><line x1="128" y1="244" x2="232" y2="348" stroke="#9aa0ad" stroke-width="0.8" opacity="0.5"></line><line x1="136" y1="244" x2="240" y2="348" stroke="#9aa0ad" stroke-width="0.8" opacity="0.5"></line><line x1="144" y1="244" x2="248" y2="348" stroke="#9aa0ad" stroke-width="0.8" opacity="0.5"></line><line x1="152" y1="244" x2="256" y2="348" stroke="#9aa0ad" stroke-width="0.8" opacity="0.5"></line><line x1="160" y1="244" x2="264" y2="348" stroke="#9aa0ad" stroke-width="0.8" opacity="0.5"></line><line x1="168" y1="244" x2="272" y2="348" stroke="#9aa0ad" stroke-width="0.8" opacity="0.5"></line><line x1="176" y1="244" x2="280" y2="348" stroke="#9aa0ad" stroke-width="0.8" opacity="0.5"></line><line x1="184" y1="244" x2="288" y2="348" stroke="#9aa0ad" stroke-width="0.8" opacity="0.5"></line><line x1="192" y1="244" x2="296" y2="348" stroke="#9aa0ad" stroke-width="0.8" opacity="0.5"></line></g><text x="148" y="150" text-anchor="middle" style="font:600 12.5px &#39;JetBrains Mono&#39;, monospace;fill:#737a88;">64×64×1</text><text x="148" y="374" text-anchor="middle" style="font:400 12.5px &#39;Inter&#39;, sans-serif;fill:#737a88;">chest X-ray</text><text x="148" y="392" text-anchor="middle" style="font:400 12.5px &#39;Inter&#39;, sans-serif;fill:#737a88;">grayscale</text><line x1="206" y1="296" x2="293.9" y2="296" stroke="#3b414d" stroke-width="1.8" stroke-linecap="round"></line><path d="M302 296 L293.71045105397405 299.5047650807779 L293.71045105397405 292.4952349192221 Z" fill="#3b414d"></path><text x="269" y="284" text-anchor="middle" style="font:500 11.5px &#39;JetBrains Mono&#39;, monospace;fill:#737a88;">flatten</text><rect x="309" y="180" width="34" height="232" rx="3" fill="#e1ecfb" stroke="#9cbbe4" stroke-width="1.2"></rect><line x1="310.5" y1="193" x2="341.5" y2="193" stroke="#9cbbe4" stroke-width="0.7" opacity="0.55"></line><line x1="310.5" y1="206" x2="341.5" y2="206" stroke="#9cbbe4" stroke-width="0.7" opacity="0.55"></line><line x1="310.5" y1="219" x2="341.5" y2="219" stroke="#9cbbe4" stroke-width="0.7" opacity="0.55"></line><line x1="310.5" y1="232" x2="341.5" y2="232" stroke="#9cbbe4" stroke-width="0.7" opacity="0.55"></line><line x1="310.5" y1="245" x2="341.5" y2="245" stroke="#9cbbe4" stroke-width="0.7" opacity="0.55"></line><line x1="310.5" y1="258" x2="341.5" y2="258" stroke="#9cbbe4" stroke-width="0.7" opacity="0.55"></line><line x1="310.5" y1="271" x2="341.5" y2="271" stroke="#9cbbe4" stroke-width="0.7" opacity="0.55"></line><line x1="310.5" y1="284" x2="341.5" y2="284" stroke="#9cbbe4" stroke-width="0.7" opacity="0.55"></line><line x1="310.5" y1="297" x2="341.5" y2="297" stroke="#9cbbe4" stroke-width="0.7" opacity="0.55"></line><line x1="310.5" y1="310" x2="341.5" y2="310" stroke="#9cbbe4" stroke-width="0.7" opacity="0.55"></line><line x1="310.5" y1="323" x2="341.5" y2="323" stroke="#9cbbe4" stroke-width="0.7" opacity="0.55"></line><line x1="310.5" y1="336" x2="341.5" y2="336" stroke="#9cbbe4" stroke-width="0.7" opacity="0.55"></line><line x1="310.5" y1="349" x2="341.5" y2="349" stroke="#9cbbe4" stroke-width="0.7" opacity="0.55"></line><line x1="310.5" y1="362" x2="341.5" y2="362" stroke="#9cbbe4" stroke-width="0.7" opacity="0.55"></line><line x1="310.5" y1="375" x2="341.5" y2="375" stroke="#9cbbe4" stroke-width="0.7" opacity="0.55"></line><line x1="310.5" y1="388" x2="341.5" y2="388" stroke="#9cbbe4" stroke-width="0.7" opacity="0.55"></line><line x1="310.5" y1="401" x2="341.5" y2="401" stroke="#9cbbe4" stroke-width="0.7" opacity="0.55"></line><rect x="309" y="180" width="34" height="232" rx="3" fill="none" stroke="#737a88" stroke-width="1.1"></rect><text x="326" y="150" text-anchor="middle" style="font:700 13.5px &#39;JetBrains Mono&#39;, monospace;fill:#3b414d;">4096</text><rect x="579" y="208" width="34" height="176" rx="3" fill="#cbdef6" stroke="#86abdd" stroke-width="1.2"></rect><line x1="580.5" y1="221" x2="611.5" y2="221" stroke="#86abdd" stroke-width="0.7" opacity="0.55"></line><line x1="580.5" y1="234" x2="611.5" y2="234" stroke="#86abdd" stroke-width="0.7" opacity="0.55"></line><line x1="580.5" y1="247" x2="611.5" y2="247" stroke="#86abdd" stroke-width="0.7" opacity="0.55"></line><line x1="580.5" y1="260" x2="611.5" y2="260" stroke="#86abdd" stroke-width="0.7" opacity="0.55"></line><line x1="580.5" y1="273" x2="611.5" y2="273" stroke="#86abdd" stroke-width="0.7" opacity="0.55"></line><line x1="580.5" y1="286" x2="611.5" y2="286" stroke="#86abdd" stroke-width="0.7" opacity="0.55"></line><line x1="580.5" y1="299" x2="611.5" y2="299" stroke="#86abdd" stroke-width="0.7" opacity="0.55"></line><line x1="580.5" y1="312" x2="611.5" y2="312" stroke="#86abdd" stroke-width="0.7" opacity="0.55"></line><line x1="580.5" y1="325" x2="611.5" y2="325" stroke="#86abdd" stroke-width="0.7" opacity="0.55"></line><line x1="580.5" y1="338" x2="611.5" y2="338" stroke="#86abdd" stroke-width="0.7" opacity="0.55"></line><line x1="580.5" y1="351" x2="611.5" y2="351" stroke="#86abdd" stroke-width="0.7" opacity="0.55"></line><line x1="580.5" y1="364" x2="611.5" y2="364" stroke="#86abdd" stroke-width="0.7" opacity="0.55"></line><line x1="580.5" y1="377" x2="611.5" y2="377" stroke="#86abdd" stroke-width="0.7" opacity="0.55"></line><rect x="579" y="208" width="34" height="176" rx="3" fill="none" stroke="#737a88" stroke-width="1.1"></rect><text x="596" y="150" text-anchor="middle" style="font:700 13.5px &#39;JetBrains Mono&#39;, monospace;fill:#3b414d;">1024</text><rect x="849" y="235" width="34" height="122" rx="3" fill="#abc9f0" stroke="#6f97d6" stroke-width="1.2"></rect><line x1="850.5" y1="248" x2="881.5" y2="248" stroke="#6f97d6" stroke-width="0.7" opacity="0.55"></line><line x1="850.5" y1="261" x2="881.5" y2="261" stroke="#6f97d6" stroke-width="0.7" opacity="0.55"></line><line x1="850.5" y1="274" x2="881.5" y2="274" stroke="#6f97d6" stroke-width="0.7" opacity="0.55"></line><line x1="850.5" y1="287" x2="881.5" y2="287" stroke="#6f97d6" stroke-width="0.7" opacity="0.55"></line><line x1="850.5" y1="300" x2="881.5" y2="300" stroke="#6f97d6" stroke-width="0.7" opacity="0.55"></line><line x1="850.5" y1="313" x2="881.5" y2="313" stroke="#6f97d6" stroke-width="0.7" opacity="0.55"></line><line x1="850.5" y1="326" x2="881.5" y2="326" stroke="#6f97d6" stroke-width="0.7" opacity="0.55"></line><line x1="850.5" y1="339" x2="881.5" y2="339" stroke="#6f97d6" stroke-width="0.7" opacity="0.55"></line><line x1="850.5" y1="352" x2="881.5" y2="352" stroke="#6f97d6" stroke-width="0.7" opacity="0.55"></line><rect x="849" y="235" width="34" height="122" rx="3" fill="none" stroke="#737a88" stroke-width="1.1"></rect><text x="866" y="150" text-anchor="middle" style="font:700 13.5px &#39;JetBrains Mono&#39;, monospace;fill:#3b414d;">256</text><rect x="1101" y="257" width="34" height="78" rx="3" fill="#88b0ec" stroke="#5a82cf" stroke-width="1.2"></rect><line x1="1102.5" y1="270" x2="1133.5" y2="270" stroke="#5a82cf" stroke-width="0.7" opacity="0.55"></line><line x1="1102.5" y1="283" x2="1133.5" y2="283" stroke="#5a82cf" stroke-width="0.7" opacity="0.55"></line><line x1="1102.5" y1="296" x2="1133.5" y2="296" stroke="#5a82cf" stroke-width="0.7" opacity="0.55"></line><line x1="1102.5" y1="309" x2="1133.5" y2="309" stroke="#5a82cf" stroke-width="0.7" opacity="0.55"></line><line x1="1102.5" y1="322" x2="1133.5" y2="322" stroke="#5a82cf" stroke-width="0.7" opacity="0.55"></line><rect x="1101" y="257" width="34" height="78" rx="3" fill="none" stroke="#737a88" stroke-width="1.1"></rect><text x="1118" y="150" text-anchor="middle" style="font:700 13.5px &#39;JetBrains Mono&#39;, monospace;fill:#3b414d;">64</text><line x1="348" y1="296" x2="565.9" y2="296" stroke="#3b414d" stroke-width="1.7" stroke-linecap="round"></line><path d="M574 296 L565.710451053974 299.5047650807779 L565.710451053974 292.4952349192221 Z" fill="#3b414d"></path><text x="461" y="244" text-anchor="middle" style="font:500 12.5px &#39;JetBrains Mono&#39;, monospace;fill:#3b414d;">Linear 4096→1024</text><text x="461" y="262" text-anchor="middle" style="font:500 12.5px &#39;JetBrains Mono&#39;, monospace;fill:#3b414d;">ReLU</text><text x="461" y="280" text-anchor="middle" style="font:500 12.5px &#39;JetBrains Mono&#39;, monospace;fill:#3b414d;">Dropout 0.3</text><line x1="618" y1="296" x2="835.9" y2="296" stroke="#3b414d" stroke-width="1.7" stroke-linecap="round"></line><path d="M844 296 L835.710451053974 299.5047650807779 L835.710451053974 292.4952349192221 Z" fill="#3b414d"></path><text x="731" y="244" text-anchor="middle" style="font:500 12.5px &#39;JetBrains Mono&#39;, monospace;fill:#3b414d;">Linear 1024→256</text><text x="731" y="262" text-anchor="middle" style="font:500 12.5px &#39;JetBrains Mono&#39;, monospace;fill:#3b414d;">ReLU</text><text x="731" y="280" text-anchor="middle" style="font:500 12.5px &#39;JetBrains Mono&#39;, monospace;fill:#3b414d;">Dropout 0.3</text><line x1="888" y1="296" x2="1087.9" y2="296" stroke="#3b414d" stroke-width="1.7" stroke-linecap="round"></line><path d="M1096 296 L1087.710451053974 299.5047650807779 L1087.710451053974 292.4952349192221 Z" fill="#3b414d"></path><text x="992" y="244" text-anchor="middle" style="font:500 12.5px &#39;JetBrains Mono&#39;, monospace;fill:#3b414d;">Linear 256→64</text><text x="992" y="262" text-anchor="middle" style="font:500 12.5px &#39;JetBrains Mono&#39;, monospace;fill:#3b414d;">ReLU</text><text x="992" y="280" text-anchor="middle" style="font:500 12.5px &#39;JetBrains Mono&#39;, monospace;fill:#3b414d;">Dropout 0.3</text><line x1="1140" y1="296" x2="1265.9" y2="296" stroke="#3b414d" stroke-width="1.7" stroke-linecap="round"></line><path d="M1274 296 L1265.710451053974 299.5047650807779 L1265.710451053974 292.4952349192221 Z" fill="#3b414d"></path><text x="1211" y="266" text-anchor="middle" style="font:500 12.5px &#39;JetBrains Mono&#39;, monospace;fill:#3b414d;">Linear</text><text x="1211" y="283" text-anchor="middle" style="font:500 12.5px &#39;JetBrains Mono&#39;, monospace;fill:#3b414d;">64 → 1</text><rect x="1279" y="275" width="42" height="42" rx="6" fill="#6592e3" stroke="#43699f" stroke-width="1.2"></rect><text x="1300" y="302" text-anchor="middle" style="font:700 18px &#39;Inter&#39;, sans-serif;fill:#fff;">z</text><text x="1300" y="150" text-anchor="middle" style="font:700 13.5px &#39;JetBrains Mono&#39;, monospace;fill:#3b414d;">1</text><text x="1300" y="336" text-anchor="middle" style="font:600 12px &#39;JetBrains Mono&#39;, monospace;fill:#737a88;">logit</text><line x1="1322" y1="296" x2="1383.9" y2="296" stroke="#3b414d" stroke-width="1.7" stroke-linecap="round"></line><path d="M1392 296 L1383.710451053974 299.5047650807779 L1383.710451053974 292.4952349192221 Z" fill="#3b414d"></path><text x="1357" y="284" text-anchor="middle" style="font:600 14px &#39;JetBrains Mono&#39;, monospace;fill:#3b414d;">σ</text><rect x="1400" y="238" width="220" height="116" rx="11" fill="#fffcfa" stroke="#c6ccd6" stroke-width="1.3"></rect><path d="M1401.5 249 a9.5 9.5 0 0 1 9.5 -9.5 M1401.5 343 a9.5 9.5 0 0 0 9.5 9.5"></path><rect x="1400" y="238" width="4" height="116" rx="2" fill="#cf6037"></rect><rect x="1404" y="238" width="6" height="116" fill="#fffcfa"></rect><text x="1420" y="268" text-anchor="start" style="font:700 16px &#39;Inter&#39;, sans-serif;fill:#20242c;">Loss</text><text x="1602" y="268" text-anchor="end" style="font:600 11px &#39;JetBrains Mono&#39;, monospace;fill:#737a88;">target y</text><text x="1420" y="294" text-anchor="start" style="font:400 13px &#39;JetBrains Mono&#39;, monospace;fill:#3b414d;">BCE-with-logits</text><text x="1420" y="318" text-anchor="start" style="font:400 12.5px &#39;JetBrains Mono&#39;, monospace;fill:#737a88;">σ(z) = P(abnormal)</text><text x="1420" y="337" text-anchor="start" style="font:400 12px &#39;Inter&#39;, sans-serif;fill:#737a88;">normal vs. abnormal</text><path d="M1510 358 L1510 452 L282 452" fill="none" stroke="#cf6037" stroke-width="2" stroke-linejoin="round" stroke-linecap="round"></path><path d="M282 452 L292.1316709340317 447.71639823460487 L292.1316709340317 456.28360176539513 Z" fill="#cf6037"></path><text x="1376" y="440" text-anchor="end" style="font:600 13.5px &#39;JetBrains Mono&#39;, monospace;fill:#cf6037;">dL/dz = (σ(z) − y) / N</text><text x="722" y="474" text-anchor="middle" style="font:500 12.5px &#39;JetBrains Mono&#39;, monospace;fill:#cf6037;">BACKWARD  ·  upstream gradient threaded layer-by-layer (chain rule, hand-derived)</text><line x1="70" y1="524" x2="1610" y2="524" stroke="#e2e6ec" stroke-width="1.4"></line><text x="72" y="552" text-anchor="start" style="font:700 12.5px &#39;Inter&#39;, sans-serif;fill:#20242c;letter-spacing:1.6px;text-transform:uppercase;">THE LINEAR LAYER</text><text x="258" y="552" text-anchor="start" style="font:400 12.5px &#39;Inter&#39;, sans-serif;fill:#737a88;">— derived and coded by hand; every gradient verified numerically</text><rect x="150" y="678" width="22" height="12" fill="#e1ecfb" stroke="#9cbbe4" stroke-width="0.8"></rect><rect x="150" y="690" width="22" height="12" fill="#e1ecfb" stroke="#9cbbe4" stroke-width="0.8"></rect><rect x="150" y="702" width="22" height="12" fill="#e1ecfb" stroke="#9cbbe4" stroke-width="0.8"></rect><rect x="150" y="714" width="22" height="12" fill="#e1ecfb" stroke="#9cbbe4" stroke-width="0.8"></rect><rect x="150" y="726" width="22" height="12" fill="#e1ecfb" stroke="#9cbbe4" stroke-width="0.8"></rect><rect x="150" y="738" width="22" height="12" fill="#e1ecfb" stroke="#9cbbe4" stroke-width="0.8"></rect><rect x="150" y="750" width="22" height="12" fill="#e1ecfb" stroke="#9cbbe4" stroke-width="0.8"></rect><rect x="150" y="678" width="22" height="84" fill="none" stroke="#737a88" stroke-width="1.1"></rect><text x="161" y="780" text-anchor="middle" style="font:600 12px &#39;JetBrains Mono&#39;, monospace;fill:#737a88;">x  (batch in)</text><rect x="320" y="653" width="232" height="134" rx="10" fill="#fbfcfe" stroke="#c6ccd6" stroke-width="1.3"></rect><text x="436" y="683" text-anchor="middle" style="font:700 15.5px &#39;Inter&#39;, sans-serif;fill:#20242c;">Linear</text><text x="436" y="707" text-anchor="middle" style="font:400 12.5px &#39;JetBrains Mono&#39;, monospace;fill:#3b414d;">y = xW + b</text><line x1="338" y1="723" x2="534" y2="723" stroke="#e2e6ec" stroke-width="1"></line><text x="436" y="745" text-anchor="middle" style="font:700 13.5px &#39;JetBrains Mono&#39;, monospace;fill:#cf6037;">dW = xᵀ · dout</text><text x="436" y="767" text-anchor="middle" style="font:600 13px &#39;JetBrains Mono&#39;, monospace;fill:#cf6037;">db = Σ dout</text><rect x="672" y="696" width="22" height="12" fill="#abc9f0" stroke="#6f97d6" stroke-width="0.8"></rect><rect x="672" y="708" width="22" height="12" fill="#abc9f0" stroke="#6f97d6" stroke-width="0.8"></rect><rect x="672" y="720" width="22" height="12" fill="#abc9f0" stroke="#6f97d6" stroke-width="0.8"></rect><rect x="672" y="732" width="22" height="12" fill="#abc9f0" stroke="#6f97d6" stroke-width="0.8"></rect><rect x="672" y="696" width="22" height="48" fill="none" stroke="#737a88" stroke-width="1.1"></rect><text x="683" y="780" text-anchor="middle" style="font:600 12px &#39;JetBrains Mono&#39;, monospace;fill:#737a88;">y  (out)</text><line x1="178" y1="720" x2="305.9" y2="720" stroke="#3b414d" stroke-width="1.7" stroke-linecap="round"></line><path d="M314 720 L305.71045105397405 723.5047650807778 L305.71045105397405 716.4952349192222 Z" fill="#3b414d"></path><line x1="558" y1="720" x2="657.9" y2="720" stroke="#3b414d" stroke-width="1.7" stroke-linecap="round"></line><path d="M666 720 L657.710451053974 723.5047650807778 L657.710451053974 716.4952349192222 Z" fill="#3b414d"></path><path d="M178 635 L694 635" fill="none" stroke="#737a88" stroke-width="1.2" stroke-linejoin="round" stroke-linecap="round"></path><text x="433" y="627" text-anchor="middle" style="font:600 12px &#39;JetBrains Mono&#39;, monospace;fill:#737a88;">forward  ·  data</text><path d="M694 817 L178 817" fill="none" stroke="#cf6037" stroke-width="1.8" stroke-linejoin="round" stroke-linecap="round"></path><path d="M178 817 L187.21060994002886 813.1058165769135 L187.21060994002886 820.8941834230865 Z" fill="#cf6037"></path><text x="433" y="808" text-anchor="middle" style="font:600 13px &#39;JetBrains Mono&#39;, monospace;fill:#cf6037;">backward  ·  dx = dout · Wᵀ</text><rect x="760" y="620" width="452" height="64" rx="10" fill="#fafcff" stroke="#c6ccd6" stroke-width="1.3"></rect><path d="M761.5 630 a8.5 8.5 0 0 1 8.5 -8.5 M761.5 674 a8.5 8.5 0 0 0 8.5 8.5"></path><rect x="760" y="620" width="4" height="64" rx="2" fill="#2f6fd6"></rect><rect x="764" y="620" width="6" height="64" fill="#fafcff"></rect><text x="784" y="647" text-anchor="start" style="font:700 14px &#39;Inter&#39;, sans-serif;fill:#20242c;">ReLU</text><text x="784" y="669" text-anchor="start" style="font:400 12.5px &#39;JetBrains Mono&#39;, monospace;fill:#3b414d;">backward:  dout ⊙ 1[x &gt; 0]</text><rect x="760" y="698" width="452" height="64" rx="10" fill="#fafcff" stroke="#c6ccd6" stroke-width="1.3"></rect><path d="M761.5 708 a8.5 8.5 0 0 1 8.5 -8.5 M761.5 752 a8.5 8.5 0 0 0 8.5 8.5"></path><rect x="760" y="698" width="4" height="64" rx="2" fill="#2f6fd6"></rect><rect x="764" y="698" width="6" height="64" fill="#fafcff"></rect><text x="784" y="725" text-anchor="start" style="font:700 14px &#39;Inter&#39;, sans-serif;fill:#20242c;">Dropout</text><text x="784" y="747" text-anchor="start" style="font:400 12.5px &#39;JetBrains Mono&#39;, monospace;fill:#3b414d;">backward:  dout ⊙ mask / (1 − p)</text><rect x="760" y="776" width="452" height="84" rx="10" fill="#fffaf7" stroke="#cf6037" stroke-width="1.3"></rect><path d="M761.5 786 a8.5 8.5 0 0 1 8.5 -8.5 M761.5 850 a8.5 8.5 0 0 0 8.5 8.5"></path><rect x="760" y="776" width="4" height="84" rx="2" fill="#cf6037"></rect><rect x="764" y="776" width="6" height="84" fill="#fffaf7"></rect><text x="784" y="804" text-anchor="start" style="font:700 14.5px &#39;Inter&#39;, sans-serif;fill:#cf6037;">Gradient check  ✓</text><text x="784" y="827" text-anchor="start" style="font:400 12px &#39;JetBrains Mono&#39;, monospace;fill:#3b414d;">analytic vs. central-difference  (L(w+ε) − L(w−ε)) / 2ε</text><text x="784" y="846" text-anchor="start" style="font:400 12px &#39;JetBrains Mono&#39;, monospace;fill:#737a88;">max relative error  &lt;  1e-6   →   backprop is correct</text><text x="1264" y="632" text-anchor="start" style="font:700 11px &#39;Inter&#39;, sans-serif;fill:#737a88;letter-spacing:1.2px;text-transform:uppercase;">READING THE FIGURE</text><line x1="1264" y1="664" x2="1307.9" y2="664" stroke="#3b414d" stroke-width="1.8" stroke-linecap="round"></line><path d="M1316 664 L1307.710451053974 667.5047650807778 L1307.710451053974 660.4952349192222 Z" fill="#3b414d"></path><text x="1328" y="669" text-anchor="start" style="font:400 12.5px &#39;Inter&#39;, sans-serif;fill:#3b414d;">forward pass</text><path d="M1316 696 L1264 696" fill="none" stroke="#cf6037" stroke-width="2" stroke-linejoin="round" stroke-linecap="round"></path><path d="M1264 696 L1273.210609940029 692.1058165769135 L1273.210609940029 699.8941834230865 Z" fill="#cf6037"></path><text x="1328" y="701" text-anchor="start" style="font:500 12.5px &#39;Inter&#39;, sans-serif;fill:#cf6037;">gradient (backward)</text><text x="1264" y="736" text-anchor="start" style="font:400 12px &#39;Inter&#39;, sans-serif;fill:#737a88;">Sequential threads dout</text><text x="1264" y="754" text-anchor="start" style="font:400 12px &#39;Inter&#39;, sans-serif;fill:#737a88;">through layers in reverse —</text><text x="1264" y="772" text-anchor="start" style="font:400 12px &#39;Inter&#39;, sans-serif;fill:#737a88;">backprop in a few lines.</text></svg>